<svg width="230" height="484" viewBox="0 0 230 484" fill="none" xmlns="http://www.w3.org/2000/svg">
<path d="M74.0538 356.779C61.3308 349.4 49.6256 337.949 44.2819 331.078C39.1927 324.971 37.1572 324.208 37.4117 317.847C38.1751 278.405 53.9516 227.514 54.715 227.26C55.4784 227.26 55.4782 228.532 56.2415 230.058C61.3307 240.746 62.8575 241 62.6031 243.035C56.7505 286.548 65.1477 315.556 68.4557 330.824C69.728 337.186 72.0181 349.654 74.0538 355.252C74.0538 355.761 74.3083 356.27 74.0538 356.779Z" fill="#8CCD0E"/>
<path d="M119.6 299.78C119.855 300.034 119.855 299.525 147.845 345.837C150.135 349.4 150.39 349.654 149.118 350.163C146.318 351.435 143.774 353.471 140.975 354.743C126.979 360.596 132.323 359.833 128.761 350.163C127.234 346.601 116.292 301.052 119.6 299.78Z" fill="#8CCD0E"/>
<path d="M98.9929 119.623C100.011 120.641 99.5023 147.868 114.006 146.087C114.261 146.087 115.788 145.578 116.042 146.087C116.296 146.595 116.042 147.359 115.533 147.359C114.261 148.122 113.497 149.395 112.225 150.158C108.917 152.448 103.319 152.957 99.2476 148.886C90.5959 140.743 90.5962 128.529 91.1051 116.569C93.6497 118.096 96.1938 119.368 98.9929 119.623Z" fill="#8CCD0E"/>
<path d="M139.194 215.045C138.431 216.063 137.159 215.554 137.668 214.282C139.958 206.902 142.248 200.032 143.011 194.688C144.793 180.947 142.502 172.55 143.266 172.296C144.538 172.041 145.81 179.93 146.065 182.22C147.083 196.979 142.248 211.228 139.194 215.045Z" fill="#191919"/>
<path d="M150.65 153.72C152.686 155.247 157.012 163.135 158.029 173.823C159.047 185.273 160.574 182.22 152.431 188.582C150.65 190.108 150.141 185.528 149.632 183.238C140.217 144.051 110.7 120.131 150.65 153.72Z" fill="#8CCD0E"/>
<path d="M184.49 271.283C185.508 278.408 202.048 300.8 205.865 304.363C206.628 305.126 205.102 305.378 201.539 309.958C198.231 314.284 188.816 321.918 186.017 324.462C175.584 333.368 171.513 338.203 171.004 332.86C162.098 236.42 146.321 234.384 152.428 235.147C160.062 236.165 170.749 233.876 176.856 228.023C180.164 224.969 178.383 238.201 229.53 268.481C233.347 270.771 212.99 296.726 210.191 300.289C209.682 300.798 209.173 300.798 208.664 300.289C190.597 280.441 186.271 271.537 184.49 271.283Z" fill="#8CCD0E"/>
<path d="M103.828 236.675C104.083 228.023 104.846 219.88 112.734 214.536C123.167 207.666 137.162 219.371 143.269 230.822C156.755 255.758 169.733 336.422 168.715 340.493C168.461 342.275 169.987 340.239 172.786 344.056C183.219 357.797 183.219 377.136 180.675 384.77C178.639 391.131 174.059 390.622 172.278 387.06C160.063 362.123 168.715 379.68 158.791 354.998C158.028 353.471 159.555 352.708 160.318 354.489C164.644 363.14 166.679 373.319 174.059 386.296C178.385 393.676 183.219 370.265 176.858 355.761C175.586 352.962 169.478 340.239 167.952 343.038C164.644 348.636 156.247 349.654 156.247 348.382C156.247 347.618 163.626 346.346 166.17 342.02C168.206 338.712 167.443 339.476 163.117 319.373C152.175 266.191 148.358 227.769 123.93 216.572C117.06 213.519 108.153 217.845 106.627 231.84C105.354 243.798 110.444 263.901 114.261 275.097C122.149 297.744 148.867 333.114 154.974 347.618C155.229 348.382 154.72 349.4 153.956 348.127C111.462 284.258 106.882 270.262 103.828 236.675Z" fill="#191919"/>
<path d="M101.028 238.201C97.2115 242.526 80.6713 242.017 74.0553 241.255C55.7342 238.71 47.337 184.51 51.9173 168.479C60.8234 136.926 61.8415 108.172 62.8593 94.431C64.3861 71.2751 67.9488 62.6232 68.2033 59.8241C69.2211 53.2081 82.4525 24.4541 83.7248 22.9273C86.2695 19.3649 87.0328 22.6729 94.4122 24.1996C98.9925 25.2175 103.573 25.9806 100.265 26.4895C96.4479 26.9984 89.5777 25.2177 86.5242 23.182C84.7429 22.1642 85.2519 22.9273 78.8903 37.4316C64.1316 71.2748 66.6765 85.016 64.3863 114.024C60.8239 159.064 49.1182 170.006 56.2431 203.849C57.7699 211.228 59.2971 221.916 65.6587 232.857C68.2033 237.183 67.6943 237.947 70.7479 238.455C87.7967 242.017 99.5017 237.438 101.028 238.201Z" fill="#191919"/>
<path d="M157.774 449.148C157.519 442.532 155.992 441.006 154.975 438.206C154.211 436.171 154.72 440.499 146.068 442.28C145.56 442.28 145.051 442.532 144.796 442.023C144.796 441.514 145.305 441.514 145.814 441.26C162.608 433.626 147.595 440.751 122.658 363.141C111.207 327.516 108.917 285.278 112.225 285.787C115.024 286.041 108.154 347.364 157.265 438.97C160.318 444.568 161.082 452.965 157.774 460.344C153.193 471.032 135.636 491.9 133.854 480.449C132.328 471.034 142.76 451.184 143.269 447.113C143.269 446.604 143.524 446.349 144.033 446.349C146.577 446.858 131.819 479.432 136.653 481.722C139.452 482.485 158.283 463.398 157.774 449.148Z" fill="#191919"/>
<path d="M141.739 441.26C139.704 442.023 103.061 402.582 88.3025 372.555C79.6509 355.252 70.9992 331.842 66.6734 286.548C66.6734 286.548 63.1107 242.272 66.4187 242.526C68.4544 242.526 66.1645 250.16 69.218 281.458C72.7805 320.645 78.1244 350.926 98.7357 385.024C115.53 412.76 141.485 439.733 141.739 441.26Z" fill="#191919"/>
<path d="M188.308 159.319C185.763 158.555 185.254 158.809 183.982 160.845C181.183 165.934 181.183 171.023 180.674 171.532C179.656 171.278 179.91 170.26 179.91 169.751C179.401 154.484 188.562 154.738 188.816 158.555C189.834 158.301 191.107 158.046 192.124 159.064C195.687 162.372 194.669 175.858 194.16 179.93C187.544 229.549 154.973 241.509 144.795 223.443C144.286 222.425 145.049 221.407 146.067 222.679C148.866 226.496 152.174 229.04 157.009 228.786C191.87 226.496 197.214 151.685 189.071 161.609C185.763 165.68 185 169.243 184.745 169.497C183.473 172.042 183.218 164.917 188.308 159.319Z" fill="#191919"/>
<path d="M98.9897 119.622C82.4498 117.332 76.5974 94.6853 92.8829 76.3642C117.82 48.119 154.717 73.8198 145.811 71.5297C135.632 68.7306 120.874 58.2972 100.517 72.2926C90.3383 79.4174 80.6688 97.7386 87.7937 110.462C95.9364 124.966 113.24 113.515 114.003 115.042C114.512 116.314 109.423 118.096 108.405 118.605C104.842 120.132 98.9897 119.622 98.9897 119.622Z" fill="#191919"/>
<path d="M103.569 20.1283C104.333 16.3113 105.605 12.7493 104.333 8.93234C100.771 -2.26392 87.5386 2.57083 87.2841 16.5661C87.2841 17.8384 87.7928 18.8562 87.0294 19.1107C84.7392 19.6196 85.5029 11.9861 86.0118 10.4594C92.3733 -7.60735 113.239 -0.736906 104.587 19.3654C104.332 19.8743 104.078 20.1283 103.569 20.1283Z" fill="#191919"/>
<path d="M126.219 133.618C121.639 131.327 121.894 121.404 122.148 116.314C122.402 113.261 123.675 110.462 124.693 107.408C125.202 106.136 125.965 105.881 127.237 106.136C131.817 107.408 134.108 104.355 133.344 101.047C132.581 98.5021 132.326 98.5023 132.581 98.2478C132.835 97.7389 133.599 98.2476 134.108 98.5021C138.688 102.064 134.108 110.97 127.237 107.917C126.474 107.408 126.219 107.917 125.965 108.68C121.13 123.948 125.965 130.31 126.219 133.618Z" fill="#191919"/>
<path d="M102.556 28.2715C102.811 27.2536 103.574 27.7626 103.574 28.2715C103.574 30.8161 100.521 40.7396 99.2484 53.2081C98.485 60.333 98.7395 65.168 98.7395 66.1859C97.7216 73.8197 93.1413 55.4988 102.556 28.2715Z" fill="#191919"/>
<path d="M173.293 157.028C173.548 157.537 173.548 157.537 173.039 158.046C171.767 159.573 168.459 172.805 177.619 178.149C183.981 181.711 184.49 181.965 185.508 181.965C187.289 181.965 186.78 183.492 185.762 183.747C182.963 184.51 175.329 179.421 173.039 176.622C166.677 168.988 170.494 152.702 173.293 157.028Z" fill="#191919"/>
<path d="M170.241 176.367C166.933 187.309 148.866 199.523 147.848 198.251C147.085 197.233 153.701 195.706 168.714 176.367C169.986 174.586 170.241 175.349 170.241 176.367Z" fill="#191919"/>
<path d="M135.636 88.8328C134.872 87.8149 135.127 86.7971 136.653 87.5605C143.269 91.1229 144.542 106.136 138.18 110.717C136.908 111.734 136.908 110.716 137.162 110.462C138.435 108.935 142.506 97.7389 135.636 88.8328Z" fill="#191919"/>
<path d="M147.338 87.306C140.722 69.4937 126.218 72.5475 126.472 70.2573C126.727 68.7306 136.142 70.5113 141.485 74.8371C147.083 79.6719 148.356 86.2881 147.338 87.306Z" fill="#191919"/>
<path d="M116.804 9.69562C116.041 2.31626 109.934 2.31626 110.697 0.789493C111.461 -0.991731 116.804 1.80708 118.585 8.1686C120.366 14.7846 110.952 22.4187 109.934 21.1464C109.425 20.1286 117.313 15.0393 116.804 9.69562Z" fill="#191919"/>
<path d="M145.05 97.4842C143.778 97.2297 146.577 94.1762 138.434 83.4888C136.908 81.7076 133.345 79.4175 132.582 78.9085C131.818 78.1452 132.073 77.1273 133.345 77.6363C144.796 81.4532 147.34 97.7386 145.05 97.4842Z" fill="#191919"/>
<path d="M175.582 167.97C175.582 168.988 175.328 170.006 175.582 171.024C175.582 171.278 175.837 171.532 175.582 171.532C173.546 172.296 171.256 152.957 181.689 153.975C183.216 153.975 184.234 154.229 184.234 155.247C183.979 158.555 175.582 151.685 175.582 167.97Z" fill="#191919"/>
<path d="M112.22 8.42365C112.22 17.8386 103.314 22.1642 106.113 18.8562C113.493 9.69557 110.439 2.57067 105.096 2.31621C104.078 2.31621 103.824 1.04429 105.096 0.789828C110.694 0.280906 112.475 5.87904 112.22 8.42365Z" fill="#191919"/>
<path d="M107.644 26.7444C106.627 26.7444 103.573 26.4899 103.827 25.4721C104.082 23.9453 107.135 25.4721 109.68 24.1998C117.568 20.1284 116.55 15.2937 117.568 17.0749C119.349 19.6195 113.243 27.2533 107.644 26.7444Z" fill="#191919"/>
<path d="M100.266 105.627C103.319 104.609 106.118 103.083 108.408 100.793C109.172 100.029 110.19 100.284 110.19 101.047C110.19 103.592 110.699 105.882 108.918 108.172C107.137 110.462 102.302 110.208 102.556 109.444C102.811 108.426 105.355 109.19 107.645 107.409C109.427 105.882 109.935 101.556 108.663 102.828C106.882 104.1 101.283 107.409 100.266 105.627Z" fill="#191919"/>
<path d="M101.537 99.2653C99.7559 99.7742 97.4657 96.7207 98.2291 94.9395C99.247 92.3949 102.046 90.8684 104.845 86.797C105.863 85.5247 108.153 86.2876 101.792 92.6491C98.9927 95.7026 98.993 95.7026 101.283 99.0106C101.538 99.0106 101.537 99.0109 101.537 99.2653Z" fill="#191919"/>
<path d="M111.968 73.8196C112.222 74.8374 111.459 76.1097 110.187 75.0919C107.133 72.5473 100.262 73.3109 103.316 71.5297C105.351 70.5118 110.95 70.7661 111.968 73.8196Z" fill="#191919"/>
<path d="M125.2 87.8149C125.2 88.0694 125.2 90.1048 124.182 90.1048C123.418 90.1048 124.945 87.5604 120.365 83.2346C117.057 80.1811 125.2 80.1811 125.2 87.8149Z" fill="#191919"/>
<path d="M98.2245 85.7791C95.6799 82.98 92.6266 85.0159 92.1177 83.9981C91.8633 83.2347 94.6623 81.4532 97.2069 82.4711C100.769 83.9978 99.4968 87.3058 98.2245 85.7791Z" fill="#191919"/>
<path d="M116.29 94.1763C116.29 95.7031 115.527 96.2118 114.763 95.1939C112.473 92.1404 110.438 94.1761 110.438 92.1404C110.438 90.6136 116.036 90.105 116.29 94.1763Z" fill="#191919"/>
<path d="M47.59 89.0877C48.0989 74.8379 52.1703 59.8245 53.4426 60.3334C54.7149 60.8423 49.626 66.1862 50.3893 99.2661C50.3893 101.811 46.3177 101.302 47.59 89.0877Z" fill="#191919"/>
<path d="M195.175 364.413C197.211 364.158 197.72 367.212 197.466 369.248C196.448 380.698 186.269 393.93 185.251 392.658C184.997 392.404 193.903 379.426 194.412 368.484C194.666 366.194 194.158 364.667 195.175 364.413Z" fill="#191919"/>
<path d="M197.215 387.823C196.96 387.314 196.96 387.823 201.286 377.899C201.795 376.881 202.304 375.354 203.576 375.863C206.63 377.645 198.232 388.332 197.215 387.823Z" fill="#191919"/>
<path d="M41.7376 89.5965C41.7376 91.1233 40.2108 91.1233 39.7019 89.851C38.9385 87.0519 41.2292 75.3467 41.4836 75.0923C43.5193 73.0566 41.7376 73.311 41.7376 89.5965Z" fill="#191919"/>
<path d="M177.363 88.5782C170.747 86.2881 169.729 85.7789 169.729 84.5066C169.475 82.7254 176.6 80.9447 178.381 80.4357C180.162 80.1813 180.417 68.4756 182.452 68.4756C182.961 68.4756 183.216 68.73 183.47 69.239C187.287 78.654 186.778 78.9087 188.814 78.3998C191.104 77.8909 193.394 77.3817 195.43 76.8728C197.211 76.3639 198.229 77.1278 196.957 79.1634C192.631 84.7616 191.613 83.9979 192.376 86.0336C197.466 99.2656 196.448 96.9752 186.524 90.8681C184.488 89.5958 184.488 93.9222 179.653 98.248C179.144 98.5025 178.89 99.2653 178.381 99.0109C175.582 98.2475 179.908 89.5961 177.363 88.5782Z" fill="#8CCD0E"/>
<path d="M16.2894 42.7759C17.3073 41.2491 17.5617 39.7221 18.3251 38.1953C18.5796 37.6864 18.3249 37.4322 18.0704 37.1777C16.0347 34.8876 14.7627 32.343 12.4725 30.0528C11.7091 29.2894 11.2005 27.508 14.7629 28.5258C16.0352 29.0347 18.3254 29.5439 21.6334 30.0528C22.6512 30.3073 22.9052 30.0523 23.1596 29.0345C24.1775 24.9631 26.4679 16.8209 27.7402 20.6378C31.0482 30.8162 26.2134 29.2892 37.9186 29.7981C42.2444 30.0526 36.6463 35.142 32.8294 37.1777C31.3026 37.9411 32.0663 38.1956 33.0841 47.3561C33.0841 48.1195 33.593 49.3918 32.5752 49.9008C31.5573 50.4097 31.0484 49.3918 30.5395 48.6284C22.6512 40.2312 26.7223 41.2491 18.3251 46.0838C14.5082 48.1195 15.0171 44.5571 16.2894 42.7759Z" fill="#8CCD0E"/>
<path d="M17.3081 204.867C18.5804 195.197 19.598 197.742 10.6919 194.18C6.62054 192.653 13.4912 189.599 17.8171 188.836C19.8527 188.581 20.1067 176.876 21.8879 176.876C22.3968 176.876 22.6518 176.621 26.2143 185.782C27.741 189.853 45.5528 178.149 32.0663 192.398C31.0485 193.416 31.303 193.161 34.611 202.067C35.1199 203.594 34.6112 204.612 32.83 203.34C24.9417 197.741 24.942 198.505 24.1786 199.523C21.3795 203.849 17.3081 210.719 17.3081 204.867Z" fill="#8CCD0E"/>
<path d="M189.069 130.819C194.412 130.819 194.412 138.962 189.069 138.962C183.725 138.707 183.47 130.564 189.069 130.819Z" fill="#8CCD0E"/>
<path d="M161.33 30.5612C161.33 35.9049 153.188 35.6502 153.188 30.3065C153.188 24.7084 161.33 24.4542 161.33 30.5612Z" fill="#8CCD0E"/>
<path d="M39.7018 15.2936C34.3582 15.2936 34.6129 7.40503 39.4476 7.40503C44.5368 7.40503 45.0455 15.2936 39.7018 15.2936Z" fill="#8CCD0E"/>
<path d="M33.3348 170.769C29.2634 170.769 29.2634 164.662 33.3348 164.662C37.6606 164.916 37.6606 170.769 33.3348 170.769Z" fill="#8CCD0E"/>
<path d="M7.38281 80.1808C7.38281 76.1094 13.2354 76.3639 13.2354 80.1808C13.4899 83.9977 7.38281 84.2522 7.38281 80.1808Z" fill="#8CCD0E"/>
<path d="M27.9953 218.353C24.4328 218.353 24.6873 213.01 27.9953 213.01C31.5577 213.01 31.5577 218.353 27.9953 218.353Z" fill="#8CCD0E"/>
<path d="M146.316 130.31C146.316 126.747 151.66 126.748 151.66 130.056C151.66 133.618 146.316 133.872 146.316 130.31Z" fill="#8CCD0E"/>
<path d="M167.184 32.5969C169.983 32.8514 169.729 36.9228 166.93 36.9228C164.13 36.9228 164.385 32.5969 167.184 32.5969Z" fill="#8CCD0E"/>
<path d="M7.38294 136.926C10.182 136.926 10.1825 141.252 7.12898 141.252C4.32991 141.252 4.58387 136.926 7.38294 136.926Z" fill="#8CCD0E"/>
<path d="M43.5156 40.7397C46.0602 40.7397 45.8057 44.8114 43.5156 44.8114C41.4799 44.5569 40.7165 40.7397 43.5156 40.7397Z" fill="#8CCD0E"/>
<path d="M3.5661 43.7933C3.5661 46.0835 0.00390625 46.3384 0.00390625 43.5394C0.258367 41.5037 3.5661 41.2487 3.5661 43.7933Z" fill="#8CCD0E"/>
</svg>
