<svg width="72" height="72" viewBox="0 0 72 72" fill="none" xmlns="http://www.w3.org/2000/svg">
<g clip-path="url(#clip0_20_32)">
<path d="M1.5 70.4999V67.4999C1.50122 65.0555 2.24879 62.6702 3.64269 60.6623C5.03661 58.6547 7.0104 57.1202 9.3 56.2649L24.693 51.0959" stroke="#3B3A53" stroke-width="2" stroke-linecap="round" stroke-linejoin="round"/>
<path d="M47.3193 51.0959L62.7003 56.2649C64.9899 57.1202 66.9636 58.6547 68.3577 60.6623C69.7515 62.6702 70.4991 65.0555 70.5003 67.4999V70.4999" stroke="#3B3A53" stroke-width="2" stroke-linecap="round" stroke-linejoin="round"/>
<path d="M31.5 39C32.6181 39.9996 34.0746 40.536 35.574 40.5H36.426C37.9254 40.5366 39.3822 40.0002 40.5 39" stroke="#3B3A53" stroke-width="2" stroke-linecap="round" stroke-linejoin="round"/>
<path d="M33 27C32.6823 26.5022 32.2356 26.0998 31.7073 25.8356C31.179 25.5715 30.5889 25.4555 30 25.5C29.4111 25.4555 28.8211 25.5715 28.2928 25.8356C27.7645 26.0998 27.3178 26.5022 27 27" stroke="#3B3A53" stroke-width="2" stroke-linecap="round" stroke-linejoin="round"/>
<path d="M45 27C44.6823 26.5022 44.2356 26.0998 43.7073 25.8356C43.179 25.5715 42.5889 25.4555 42 25.5C41.4111 25.4555 40.821 25.5715 40.2927 25.8356C39.7644 26.0998 39.3177 26.5022 39 27" stroke="#3B3A53" stroke-width="2" stroke-linecap="round" stroke-linejoin="round"/>
<path d="M36.0604 49.5C40.2214 49.5 49.5304 44.337 50.8564 36.405C50.9371 35.9199 51.1357 35.4621 51.4351 35.0718C51.7342 34.6815 52.1248 34.3707 52.5724 34.167C55.8004 32.7 56.6164 26.811 54.0004 25.5C55.5004 16.542 55.5004 1.5 36.0544 1.5C16.6084 1.5 16.6234 16.542 18.1114 25.5C15.4984 26.811 16.3114 32.7 19.5454 34.167C19.9929 34.3707 20.3835 34.6815 20.6828 35.0718C20.982 35.4621 21.1807 35.9199 21.2614 36.405C22.5904 44.337 31.8994 49.5 36.0604 49.5Z" stroke="#3B3A53" stroke-width="2" stroke-linecap="round" stroke-linejoin="round"/>
<path d="M17.1512 31.533C16.6064 35.9265 14.3634 39.9324 10.9022 42.693C10.6842 42.8169 10.5007 42.9936 10.3686 43.2066C10.2365 43.4199 10.1599 43.6626 10.1459 43.9131C10.1319 44.1633 10.1808 44.4132 10.2883 44.64C10.3958 44.8665 10.5584 45.0624 10.7612 45.21C13.2508 47.1474 16.3484 48.1365 19.5002 48" stroke="#3B3A53" stroke-width="2" stroke-linecap="round" stroke-linejoin="round"/>
<path d="M54.9 31.7161C55.4658 36.0427 57.693 39.9796 61.11 42.6931C61.3281 42.817 61.5114 42.9937 61.6437 43.207C61.7757 43.42 61.8522 43.663 61.8663 43.9132C61.8804 44.1637 61.8312 44.4136 61.7238 44.6401C61.6164 44.8666 61.4538 45.0628 61.251 45.2101C58.7583 47.1505 55.6557 48.1396 52.5 48.0001" stroke="#3B3A53" stroke-width="2" stroke-linecap="round" stroke-linejoin="round"/>
<path d="M17.5439 19.4518C21.5579 19.3618 29.6459 20.5888 36 12.9448C42.384 20.6248 50.613 19.3768 54.579 19.4818" stroke="#3B3A53" stroke-width="2" stroke-linecap="round" stroke-linejoin="round"/>
<path d="M36.0596 63C35.6453 63 35.3096 62.6643 35.3096 62.25C35.3096 61.8357 35.6453 61.5 36.0596 61.5" stroke="#3B3A53" stroke-width="2"/>
<path d="M36.0596 63C36.4739 63 36.8096 62.6643 36.8096 62.25C36.8096 61.8357 36.4739 61.5 36.0596 61.5" stroke="#3B3A53" stroke-width="2"/>
<path d="M29.25 58.5C28.8358 58.5 28.5 58.1643 28.5 57.75C28.5 57.3357 28.8358 57 29.25 57" stroke="#3B3A53" stroke-width="2"/>
<path d="M29.25 58.5C29.6642 58.5 30 58.1643 30 57.75C30 57.3357 29.6642 57 29.25 57" stroke="#3B3A53" stroke-width="2"/>
<path d="M42.75 58.5C42.3357 58.5 42 58.1643 42 57.75C42 57.3357 42.3357 57 42.75 57" stroke="#3B3A53" stroke-width="2"/>
<path d="M42.75 58.5C43.1643 58.5 43.5 58.1643 43.5 57.75C43.5 57.3357 43.1643 57 42.75 57" stroke="#3B3A53" stroke-width="2"/>
<path d="M11.9072 55.386L24.0002 70.5" stroke="#3B3A53" stroke-width="2" stroke-linecap="round" stroke-linejoin="round"/>
<path d="M60.093 55.386L48 70.5" stroke="#3B3A53" stroke-width="2" stroke-linecap="round" stroke-linejoin="round"/>
</g>
<defs>
<clipPath id="clip0_20_32">
<rect width="72" height="72" fill="white"/>
</clipPath>
</defs>
</svg>
