<svg width="72" height="72" viewBox="0 0 72 72" fill="none" xmlns="http://www.w3.org/2000/svg">
<g clip-path="url(#clip0_20_23)">
<path d="M70.5 70.5001C70.4988 68.0559 69.7512 65.6704 68.3573 63.6626C66.9634 61.6548 64.9896 60.1206 62.7 59.2651L47.61 54.1981C47.3003 54.0941 46.9651 54.0941 46.6553 54.1981C46.3456 54.3021 46.0783 54.5043 45.894 54.7741C44.792 56.3828 43.3146 57.6988 41.5896 58.608C39.8646 59.5173 37.944 59.9925 35.994 59.9925C34.044 59.9925 32.1234 59.5173 30.3984 58.608C28.6734 57.6988 27.196 56.3828 26.094 54.7741C25.9093 54.5048 25.6418 54.3032 25.3321 54.1998C25.0224 54.0964 24.6874 54.0968 24.378 54.2011L9.3 59.2651C7.01039 60.1206 5.03661 61.6548 3.6427 63.6626C2.24879 65.6704 1.50122 68.0559 1.5 70.5001" stroke="#333333" stroke-width="2" stroke-linecap="round" stroke-linejoin="round"/>
<path d="M52.2274 55.7461C50.808 58.8583 48.5236 61.4966 45.6465 63.3466C42.7694 65.1967 39.421 66.1803 36.0004 66.1803C32.5799 66.1803 29.2314 65.1967 26.3543 63.3466C23.4772 61.4966 21.1928 58.8583 19.7734 55.7461" stroke="#333333" stroke-width="2" stroke-linecap="round" stroke-linejoin="round"/>
<path d="M49.0828 23.2111L48.0658 18.1111C36.0658 18.1111 36.0658 12.1111 36.0658 12.1111H35.8138C35.8138 12.1111 35.8138 18.1111 23.8138 18.1111L22.7998 23.2111" stroke="#333333" stroke-width="2" stroke-linecap="round" stroke-linejoin="round"/>
<path d="M31.5 39.1201C32.6181 40.1196 34.0747 40.656 35.574 40.6201H36.426C37.9254 40.6566 39.3823 40.1202 40.5 39.1201" stroke="#333333" stroke-width="2" stroke-linecap="round" stroke-linejoin="round"/>
<path d="M33 27.1199C32.6827 26.6216 32.236 26.2188 31.7076 25.9546C31.1792 25.6904 30.589 25.5747 30 25.6199C29.4111 25.5754 28.8211 25.6914 28.2928 25.9555C27.7645 26.2196 27.3178 26.622 27 27.1199" stroke="#333333" stroke-width="2" stroke-linecap="round" stroke-linejoin="round"/>
<path d="M45 27.1199C44.6827 26.6216 44.236 26.2188 43.7076 25.9546C43.1792 25.6904 42.589 25.5747 42 25.6199C41.4111 25.5754 40.8211 25.6914 40.2928 25.9555C39.7645 26.2196 39.3178 26.622 39 27.1199" stroke="#333333" stroke-width="2" stroke-linecap="round" stroke-linejoin="round"/>
<path d="M35.9399 49.623C40.1159 49.623 49.4399 44.46 50.7809 36.528C50.8618 36.0418 51.0612 35.5829 51.3615 35.1921C51.6618 34.8012 52.0539 34.4904 52.5029 34.287C55.7489 32.817 56.5589 26.931 53.9399 25.623C55.4399 16.665 55.4399 1.62305 35.9399 1.62305C16.4399 1.62305 16.4399 16.665 17.9399 25.623C15.3209 26.931 16.1399 32.823 19.3769 34.287C19.826 34.4904 20.218 34.8012 20.5183 35.1921C20.8187 35.5829 21.0181 36.0418 21.0989 36.528C22.4279 44.46 31.7669 49.623 35.9399 49.623Z" stroke="#333333" stroke-width="2" stroke-linecap="round" stroke-linejoin="round"/>
</g>
<defs>
<clipPath id="clip0_20_23">
<rect width="72" height="72" fill="white"/>
</clipPath>
</defs>
</svg>
