<svg width="74" height="74" viewBox="0 0 74 74" fill="none" xmlns="http://www.w3.org/2000/svg">
<path d="M16.6515 47.9566H11.9558C11.5407 47.9566 11.1426 47.7916 10.8491 47.4981C10.5555 47.2046 10.3906 46.8065 10.3906 46.3913V37C10.3906 36.5849 10.5555 36.1868 10.8491 35.8933C11.1426 35.5997 11.5407 35.4348 11.9558 35.4348H29.1732" stroke="#333333" stroke-width="2" stroke-linecap="round" stroke-linejoin="round"/>
<path d="M38.5647 35.4348H71.4343C71.8494 35.4348 72.2475 35.5997 72.541 35.8933C72.8346 36.1868 72.9995 36.5849 72.9995 37V46.3913C72.9995 46.8065 72.8346 47.2046 72.541 47.4981C72.2475 47.7916 71.8494 47.9566 71.4343 47.9566H26.043" stroke="#333333" stroke-width="2" stroke-linecap="round" stroke-linejoin="round"/>
<path d="M57.3477 35.4348V47.9566" stroke="#333333" stroke-width="2" stroke-linecap="round" stroke-linejoin="round"/>
<path d="M4.13086 35.4348V47.9566" stroke="#333333" stroke-width="2" stroke-linecap="round" stroke-linejoin="round"/>
<path d="M19.7826 1C19.7826 3.49073 18.7932 5.87944 17.032 7.64065C15.2707 9.40187 12.882 10.3913 10.3913 10.3913C7.90058 10.3913 5.51186 11.3807 3.75065 13.142C1.98944 14.9032 1 17.2919 1 19.7826V26.0435" stroke="#333333" stroke-width="2" stroke-linecap="round" stroke-linejoin="round"/>
<path d="M26.0443 7.26099C26.0443 9.75172 25.0549 12.1404 23.2937 13.9016C21.5325 15.6629 19.1438 16.6523 16.653 16.6523C14.1623 16.6523 11.7736 17.6417 10.0124 19.4029C8.25116 21.1642 7.26172 23.5529 7.26172 26.0436" stroke="#333333" stroke-width="2" stroke-linecap="round" stroke-linejoin="round"/>
<path d="M73 1L1 73" stroke="#333333" stroke-width="2" stroke-linecap="round" stroke-linejoin="round"/>
</svg>
