<svg width="74" height="72" viewBox="0 0 74 72" fill="none" xmlns="http://www.w3.org/2000/svg">
<path d="M20.3333 59.5H12.5833C11.8982 59.5 11.2411 59.3288 10.7566 59.024C10.2722 58.7193 10 58.306 10 57.875V48.125C10 47.694 10.2722 47.2807 10.7566 46.976C11.2411 46.6712 11.8982 46.5 12.5833 46.5H41" stroke="#333333" stroke-width="2" stroke-linecap="round" stroke-linejoin="round"/>
<path d="M31.2 46.5H71.1C71.6039 46.5 72.0872 46.6712 72.4435 46.976C72.7998 47.2807 73 47.694 73 48.125V57.875C73 58.306 72.7998 58.7193 72.4435 59.024C72.0872 59.3288 71.6039 59.5 71.1 59.5H16" stroke="#333333" stroke-width="2" stroke-linecap="round" stroke-linejoin="round"/>
<path d="M57.3477 46.9348V59.4566" stroke="#333333" stroke-width="2" stroke-linecap="round" stroke-linejoin="round"/>
<path d="M4.13086 46.9348V59.4566" stroke="#333333" stroke-width="2" stroke-linecap="round" stroke-linejoin="round"/>
<path d="M19.7826 12.5C19.7826 14.9907 18.7932 17.3794 17.032 19.1407C15.2707 20.9019 12.882 21.8913 10.3913 21.8913C7.90058 21.8913 5.51186 22.8807 3.75065 24.642C1.98944 26.4032 1 28.7919 1 31.2826V37.5435" stroke="#333333" stroke-width="2" stroke-linecap="round" stroke-linejoin="round"/>
<path d="M26.0443 18.761C26.0443 21.2517 25.0549 23.6404 23.2937 25.4016C21.5325 27.1629 19.1438 28.1523 16.653 28.1523C14.1623 28.1523 11.7736 29.1417 10.0124 30.9029C8.25116 32.6642 7.26172 35.0529 7.26172 37.5436" stroke="#333333" stroke-width="2" stroke-linecap="round" stroke-linejoin="round"/>
</svg>
